<svg width="234" height="72" viewBox="0 0 234 72" fill="none" xmlns="http://www.w3.org/2000/svg">
<path d="M51.4 30.1V68.6C46.3333 69.6 41.7 70.1 37.5 70.1C26.6333 70.1 17.7667 66.4333 10.9 59.1C4.76667 52.5667 1.7 44.7333 1.7 35.6C1.7 25.2667 5.56667 16.6667 13.3 9.8C19.7667 4.06666 27.8 1.2 37.4 1.2C41.6 1.2 46.2667 1.9 51.4 3.3V18.9C45.6667 17.1 41.1333 16.2 37.8 16.2C31.8 16.2 26.8333 18.0333 22.9 21.7C19.0333 25.3667 17.1 30.0333 17.1 35.7C17.1 42.9667 20.1 48.5667 26.1 52.5C28.9 54.3 32.2333 55.1667 36.1 55.1V30.1H51.4ZM74.95 20.7V69H61.05V20.7H74.95ZM68.15 1.3C70.2833 1.3 72.1167 2.1 73.65 3.69999C75.25 5.3 76.05 7.16667 76.05 9.3C76.05 11.5667 75.25 13.5 73.65 15.1C72.1167 16.6333 70.25 17.4 68.05 17.4C65.7833 17.4 63.85 16.6333 62.25 15.1C60.7167 13.5 59.95 11.5667 59.95 9.3C59.95 7.1 60.75 5.23333 62.35 3.69999C63.95 2.1 65.8833 1.3 68.15 1.3ZM97.0875 34V47.4C97.0875 50.5333 97.5875 52.8 98.5875 54.2C99.5875 55.5333 101.254 56.2 103.588 56.2C104.521 56.2 105.454 56 106.388 55.6V69.3C104.721 69.7 103.054 69.9 101.388 69.9C95.7208 69.9 91.2542 68.1333 87.9875 64.6C84.7875 61.0667 83.1875 55.4667 83.1875 47.8V6.4H97.0875V20.7H106.388V34H97.0875ZM137.222 20.7H151.122C151.122 29.1667 147.922 35.0333 141.522 38.3C145.589 40.1667 148.389 42.3 149.922 44.7C151.455 47.0333 152.222 50.2667 152.222 54.4V69H138.322V57.9C138.322 53.7 137.289 50.6667 135.222 48.8C133.155 46.8667 129.789 45.8333 125.122 45.7V69H111.222V2.29999H125.122V32.6C132.589 32.6667 136.622 28.7 137.222 20.7ZM158.773 20.7H172.673V47.5C172.673 53.3 175.173 56.2 180.173 56.2C185.107 56.2 187.573 53.3 187.573 47.5V20.7H201.473V46.2C201.473 53.6 199.44 59.4 195.373 63.6C191.307 67.8 186.24 69.9 180.173 69.9C173.373 69.9 167.873 67.3667 163.673 62.3C160.407 58.3667 158.773 53 158.773 46.2V20.7ZM223.357 34V47.4C223.357 50.5333 223.857 52.8 224.857 54.2C225.857 55.5333 227.524 56.2 229.857 56.2C230.79 56.2 231.724 56 232.657 55.6V69.3C230.99 69.7 229.324 69.9 227.657 69.9C221.99 69.9 217.524 68.1333 214.257 64.6C211.057 61.0667 209.457 55.4667 209.457 47.8V6.4H223.357V20.7H232.657V34H223.357Z" fill="#ADBAC7"/>
<path d="M51.4 30.1H52.4V29.1H51.4V30.1ZM51.4 68.6L51.5936 69.5811L52.4 69.4219V68.6H51.4ZM10.9 59.1L11.63 58.4165L11.6291 58.4156L10.9 59.1ZM13.3 9.8L12.6366 9.05174L12.636 9.05223L13.3 9.8ZM51.4 3.3H52.4V2.5362L51.6631 2.33524L51.4 3.3ZM51.4 18.9L51.1005 19.8541L52.4 20.2621V18.9H51.4ZM22.9 21.7L22.2181 20.9685L22.2119 20.9744L22.9 21.7ZM26.1 52.5L25.5517 53.3363L25.5592 53.3412L26.1 52.5ZM36.1 55.1L36.1172 56.0999L37.1 56.0829V55.1H36.1ZM36.1 30.1V29.1H35.1V30.1H36.1ZM50.4 30.1V68.6H52.4V30.1H50.4ZM51.2064 67.6189C46.1896 68.6091 41.6222 69.1 37.5 69.1V71.1C41.7778 71.1 46.4771 70.5909 51.5936 69.5811L51.2064 67.6189ZM37.5 69.1C26.8848 69.1 18.291 65.5302 11.63 58.4165L10.17 59.7835C17.2423 67.3364 26.3819 71.1 37.5 71.1V69.1ZM11.6291 58.4156C5.67347 52.0715 2.7 44.4845 2.7 35.6H0.7C0.7 44.9822 3.85987 53.0618 10.1709 59.7844L11.6291 58.4156ZM2.7 35.6C2.7 25.5528 6.44416 17.2248 13.964 10.5478L12.636 9.05223C4.68918 16.1085 0.7 24.9806 0.7 35.6H2.7ZM13.9634 10.5483C20.2264 4.99546 28.0153 2.2 37.4 2.2V0.199997C27.5847 0.199997 19.3069 3.13787 12.6366 9.05174L13.9634 10.5483ZM37.4 2.2C41.4912 2.2 46.0676 2.88224 51.1369 4.26476L51.6631 2.33524C46.4657 0.917755 41.7088 0.199997 37.4 0.199997V2.2ZM50.4 3.3V18.9H52.4V3.3H50.4ZM51.6995 17.9459C45.9338 16.1357 41.2856 15.2 37.8 15.2V17.2C40.981 17.2 45.3995 18.0643 51.1005 19.8541L51.6995 17.9459ZM37.8 15.2C31.5786 15.2 26.3586 17.1088 22.2181 20.9685L23.5819 22.4315C27.3081 18.9579 32.0214 17.2 37.8 17.2V15.2ZM22.2119 20.9744C18.1324 24.8429 16.1 29.7784 16.1 35.7H18.1C18.1 30.2883 19.9343 25.8905 23.5881 22.4256L22.2119 20.9744ZM16.1 35.7C16.1 43.2985 19.2655 49.2153 25.5518 53.3363L26.6483 51.6637C20.9345 47.918 18.1 42.6348 18.1 35.7H16.1ZM25.5592 53.3412C28.5511 55.2645 32.0858 56.1694 36.1172 56.0999L36.0828 54.1002C32.3809 54.164 29.2489 53.3355 26.6408 51.6588L25.5592 53.3412ZM37.1 55.1V30.1H35.1V55.1H37.1ZM36.1 31.1H51.4V29.1H36.1V31.1ZM74.95 20.7H75.95V19.7H74.95V20.7ZM74.95 69V70H75.95V69H74.95ZM61.05 69H60.05V70H61.05V69ZM61.05 20.7V19.7H60.05V20.7H61.05ZM73.65 3.7L72.928 4.3919L72.9354 4.39958L72.9429 4.4071L73.65 3.7ZM73.65 15.1L72.9429 14.3929L73.65 15.1ZM62.25 15.1L61.528 15.7919L61.5427 15.8073L61.5581 15.822L62.25 15.1ZM62.35 3.7L63.0419 4.42198L63.0496 4.41462L63.0571 4.4071L62.35 3.7ZM73.95 20.7V69H75.95V20.7H73.95ZM74.95 68H61.05V70H74.95V68ZM62.05 69V20.7H60.05V69H62.05ZM61.05 21.7H74.95V19.7H61.05V21.7ZM68.15 2.3C69.9991 2.3 71.5751 2.98013 72.928 4.3919L74.372 3.00809C72.6583 1.21986 70.5676 0.299995 68.15 0.299995V2.3ZM72.9429 4.4071C74.368 5.83219 75.05 7.44922 75.05 9.3H77.05C77.05 6.88411 76.132 4.7678 74.3571 2.99289L72.9429 4.4071ZM75.05 9.3C75.05 11.302 74.355 12.9808 72.9429 14.3929L74.3571 15.8071C76.145 14.0192 77.05 11.8314 77.05 9.3H75.05ZM72.9429 14.3929C71.6001 15.7356 69.9891 16.4 68.05 16.4V18.4C70.5109 18.4 72.6332 17.531 74.3571 15.8071L72.9429 14.3929ZM68.05 16.4C66.0346 16.4 64.3511 15.7285 62.9419 14.378L61.5581 15.822C63.3489 17.5382 65.532 18.4 68.05 18.4V16.4ZM62.972 14.4081C61.6215 12.9989 60.95 11.3154 60.95 9.3H58.95C58.95 11.818 59.8118 14.0011 61.528 15.7919L62.972 14.4081ZM60.95 9.3C60.95 7.37484 61.6371 5.76827 63.0419 4.42198L61.6581 2.97801C59.8629 4.69839 58.95 6.82515 58.95 9.3H60.95ZM63.0571 4.4071C64.4692 2.995 66.148 2.3 68.15 2.3V0.299995C65.6186 0.299995 63.4308 1.20499 61.6429 2.99289L63.0571 4.4071ZM97.0875 34V33H96.0875V34H97.0875ZM98.5875 54.2L97.7738 54.7812L97.7805 54.7907L97.7875 54.8L98.5875 54.2ZM106.388 55.6H107.388V54.0835L105.994 54.6809L106.388 55.6ZM106.388 69.3L106.621 70.2724L107.388 70.0884V69.3H106.388ZM87.9875 64.6L87.2463 65.2713L87.2532 65.2789L87.9875 64.6ZM83.1875 6.4V5.4H82.1875V6.4H83.1875ZM97.0875 6.4H98.0875V5.4H97.0875V6.4ZM97.0875 20.7H96.0875V21.7H97.0875V20.7ZM106.388 20.7H107.388V19.7H106.388V20.7ZM106.388 34V35H107.388V34H106.388ZM96.0875 34V47.4H98.0875V34H96.0875ZM96.0875 47.4C96.0875 50.5928 96.588 53.1212 97.7738 54.7812L99.4012 53.6188C98.587 52.4788 98.0875 50.4738 98.0875 47.4H96.0875ZM97.7875 54.8C99.0445 56.4759 101.074 57.2 103.588 57.2V55.2C101.435 55.2 100.131 54.5907 99.3875 53.6L97.7875 54.8ZM103.588 57.2C104.668 57.2 105.735 56.9678 106.781 56.5191L105.994 54.6809C105.174 55.0322 104.374 55.2 103.588 55.2V57.2ZM105.388 55.6V69.3H107.388V55.6H105.388ZM106.154 68.3276C104.562 68.7098 102.973 68.9 101.387 68.9V70.9C103.135 70.9 104.88 70.6902 106.621 70.2724L106.154 68.3276ZM101.387 68.9C95.9457 68.9 91.7654 67.2132 88.7218 63.9211L87.2532 65.2789C90.743 69.0535 95.496 70.9 101.387 70.9V68.9ZM88.7287 63.9287C85.7712 60.6631 84.1875 55.3614 84.1875 47.8H82.1875C82.1875 55.5719 83.8038 61.4702 87.2463 65.2713L88.7287 63.9287ZM84.1875 47.8V6.4H82.1875V47.8H84.1875ZM83.1875 7.4H97.0875V5.4H83.1875V7.4ZM96.0875 6.4V20.7H98.0875V6.4H96.0875ZM97.0875 21.7H106.388V19.7H97.0875V21.7ZM105.388 20.7V34H107.388V20.7H105.388ZM106.388 33H97.0875V35H106.388V33ZM137.222 20.7V19.7H136.294L136.225 20.6252L137.222 20.7ZM151.122 20.7H152.122V19.7H151.122V20.7ZM141.522 38.3L141.067 37.4093L139.229 38.3477L141.105 39.2088L141.522 38.3ZM149.922 44.7L149.079 45.2384L149.086 45.2492L149.922 44.7ZM152.222 69V70H153.222V69H152.222ZM138.322 69H137.322V70H138.322V69ZM135.222 48.8L134.539 49.5303L134.545 49.5362L134.552 49.5421L135.222 48.8ZM125.122 45.7L125.15 44.7004L124.122 44.671V45.7H125.122ZM125.122 69V70H126.122V69H125.122ZM111.222 69H110.222V70H111.222V69ZM111.222 2.3V1.3H110.222V2.3H111.222ZM125.122 2.3H126.122V1.3H125.122V2.3ZM125.122 32.6H124.122V33.5911L125.113 33.6L125.122 32.6ZM137.222 21.7H151.122V19.7H137.222V21.7ZM150.122 20.7C150.122 24.8097 149.345 28.2188 147.844 30.9711C146.348 33.7142 144.102 35.8603 141.067 37.4093L141.977 39.1907C145.342 37.4731 147.896 35.0524 149.6 31.9289C151.299 28.8145 152.122 25.0569 152.122 20.7H150.122ZM141.105 39.2088C145.088 41.0374 147.693 43.068 149.079 45.2384L150.765 44.1616C149.085 41.532 146.089 39.2959 141.939 37.3912L141.105 39.2088ZM149.086 45.2492C150.472 47.3586 151.222 50.3735 151.222 54.4H153.222C153.222 50.1598 152.438 46.708 150.758 44.1508L149.086 45.2492ZM151.222 54.4V69H153.222V54.4H151.222ZM152.222 68H138.322V70H152.222V68ZM139.322 69V57.9H137.322V69H139.322ZM139.322 57.9C139.322 53.5612 138.256 50.193 135.892 48.0579L134.552 49.5421C136.321 51.1404 137.322 53.8388 137.322 57.9H139.322ZM135.905 48.0697C133.576 45.8908 129.913 44.8365 125.15 44.7004L125.093 46.6996C129.664 46.8302 132.735 47.8425 134.539 49.5303L135.905 48.0697ZM124.122 45.7V69H126.122V45.7H124.122ZM125.122 68H111.222V70H125.122V68ZM112.222 69V2.3H110.222V69H112.222ZM111.222 3.3H125.122V1.3H111.222V3.3ZM124.122 2.3V32.6H126.122V2.3H124.122ZM125.113 33.6C129.024 33.6349 132.187 32.6112 134.448 30.388C136.698 28.1756 137.908 24.9163 138.219 20.7748L136.225 20.6252C135.935 24.4837 134.829 27.2077 133.046 28.962C131.273 30.7055 128.687 31.6318 125.131 31.6L125.113 33.6ZM158.773 20.7V19.7H157.773V20.7H158.773ZM172.673 20.7H173.673V19.7H172.673V20.7ZM187.573 20.7V19.7H186.573V20.7H187.573ZM201.473 20.7H202.473V19.7H201.473V20.7ZM195.373 63.6L196.092 64.2956L195.373 63.6ZM163.673 62.3L164.443 61.6618L164.443 61.6611L163.673 62.3ZM158.773 21.7H172.673V19.7H158.773V21.7ZM171.673 20.7V47.5H173.673V20.7H171.673ZM171.673 47.5C171.673 50.5208 172.321 52.973 173.791 54.6779C175.285 56.4112 177.477 57.2 180.173 57.2V55.2C177.869 55.2 176.312 54.5388 175.306 53.3721C174.276 52.177 173.673 50.2792 173.673 47.5H171.673ZM180.173 57.2C182.84 57.2 185.009 56.4085 186.485 54.6729C187.935 52.9683 188.573 50.5182 188.573 47.5H186.573C186.573 50.2819 185.978 52.1817 184.962 53.3771C183.971 54.5415 182.44 55.2 180.173 55.2V57.2ZM188.573 47.5V20.7H186.573V47.5H188.573ZM187.573 21.7H201.473V19.7H187.573V21.7ZM200.473 20.7V46.2H202.473V20.7H200.473ZM200.473 46.2C200.473 53.4126 198.496 58.9371 194.655 62.9044L196.092 64.2956C200.384 59.8629 202.473 53.7874 202.473 46.2H200.473ZM194.655 62.9044C190.785 66.9017 185.981 68.9 180.173 68.9V70.9C186.499 70.9 191.829 68.6982 196.092 64.2956L194.655 62.9044ZM180.173 68.9C173.66 68.9 168.446 66.4906 164.443 61.6618L162.904 62.9382C167.301 68.2427 173.087 70.9 180.173 70.9V68.9ZM164.443 61.6611C161.368 57.959 159.773 52.8442 159.773 46.2H157.773C157.773 53.1558 159.445 58.7743 162.904 62.9389L164.443 61.6611ZM159.773 46.2V20.7H157.773V46.2H159.773ZM223.357 34V33H222.357V34H223.357ZM224.857 54.2L224.043 54.7812L224.05 54.7907L224.057 54.8L224.857 54.2ZM232.657 55.6H233.657V54.0835L232.263 54.6809L232.657 55.6ZM232.657 69.3L232.89 70.2724L233.657 70.0884V69.3H232.657ZM214.257 64.6L213.516 65.2713L213.523 65.2789L214.257 64.6ZM209.457 6.4V5.4H208.457V6.4H209.457ZM223.357 6.4H224.357V5.4H223.357V6.4ZM223.357 20.7H222.357V21.7H223.357V20.7ZM232.657 20.7H233.657V19.7H232.657V20.7ZM232.657 34V35H233.657V34H232.657ZM222.357 34V47.4H224.357V34H222.357ZM222.357 47.4C222.357 50.5928 222.858 53.1212 224.043 54.7812L225.671 53.6188C224.857 52.4788 224.357 50.4738 224.357 47.4H222.357ZM224.057 54.8C225.314 56.4759 227.343 57.2 229.857 57.2V55.2C227.704 55.2 226.4 54.5907 225.657 53.6L224.057 54.8ZM229.857 57.2C230.937 57.2 232.004 56.9678 233.051 56.5191L232.263 54.6809C231.443 55.0322 230.643 55.2 229.857 55.2V57.2ZM231.657 55.6V69.3H233.657V55.6H231.657ZM232.424 68.3276C230.831 68.7098 229.243 68.9 227.657 68.9V70.9C229.405 70.9 231.149 70.6902 232.89 70.2724L232.424 68.3276ZM227.657 68.9C222.215 68.9 218.035 67.2132 214.991 63.9211L213.523 65.2789C217.012 69.0535 221.766 70.9 227.657 70.9V68.9ZM214.998 63.9287C212.041 60.6631 210.457 55.3614 210.457 47.8H208.457C208.457 55.5719 210.073 61.4702 213.516 65.2713L214.998 63.9287ZM210.457 47.8V6.4H208.457V47.8H210.457ZM209.457 7.4H223.357V5.4H209.457V7.4ZM222.357 6.4V20.7H224.357V6.4H222.357ZM223.357 21.7H232.657V19.7H223.357V21.7ZM231.657 20.7V34H233.657V20.7H231.657ZM232.657 33H223.357V35H232.657V33Z" fill="#373E47"/>
</svg>
